<svg width="200" height="75" viewBox="0 0 200 75" fill="none" xmlns="http://www.w3.org/2000/svg">
<mask id="mask0_1430_2102" style="mask-type:alpha" maskUnits="userSpaceOnUse" x="4" y="0" width="183" height="71">
<path d="M4.49438 56.706V45.4375L32.8695 0.925273H42.6266V16.5227H36.852L18.964 44.7105V45.2392H59.2866V56.706H4.49438ZM37.1175 68.6024V53.2693L37.383 48.2794V0.925273H50.857V68.6024H37.1175Z" fill="#2862FF"/>
<path d="M95.5105 70.0894C89.8023 70.0674 84.8905 68.6685 80.7753 65.8926C76.6822 63.1168 73.5294 59.0963 71.3169 53.8311C69.1266 48.5658 68.0425 42.2321 68.0646 34.8299C68.0646 27.4498 69.1598 21.1601 71.3501 15.961C73.5626 10.7618 76.7154 6.80736 80.8085 4.09764C84.9237 1.36588 89.8244 0 95.5105 0C101.197 0 106.086 1.36588 110.179 4.09764C114.294 6.8294 117.458 10.7948 119.671 15.994C121.883 21.1711 122.978 27.4498 122.956 34.8299C122.956 42.2541 121.85 48.5989 119.638 53.8641C117.447 59.1293 114.306 63.1499 110.212 65.9257C106.119 68.7015 101.219 70.0894 95.5105 70.0894ZM95.5105 58.2261C99.4044 58.2261 102.513 56.2764 104.836 52.3771C107.159 48.4777 108.31 42.6286 108.288 34.8299C108.288 29.6969 107.757 25.423 106.695 22.0083C105.655 18.5936 104.172 16.027 102.247 14.3087C100.345 12.5903 98.0991 11.7311 95.5105 11.7311C91.6386 11.7311 88.5411 13.6588 86.218 17.5141C83.8949 21.3694 82.7223 27.1413 82.7002 34.8299C82.7002 40.0291 83.2201 44.369 84.26 47.8498C85.322 51.3086 86.8154 53.9082 88.7403 55.6486C90.6651 57.3669 92.9219 58.2261 95.5105 58.2261Z" fill="#2862FF"/>
<path d="M132.174 56.706V45.4375L160.549 0.925273H170.306V16.5227H164.532L146.644 44.7105V45.2392H186.966V56.706H132.174ZM164.797 68.6024V53.2693L165.063 48.2794V0.925273H178.537V68.6024H164.797Z" fill="#2862FF"/>
</mask>
<g mask="url(#mask0_1430_2102)">
<rect x="4.49414" y="55.625" width="182.472" height="14.4643" fill="url(#paint0_linear_1430_2102)"/>
</g>
<mask id="mask1_1430_2102" style="mask-type:alpha" maskUnits="userSpaceOnUse" x="4" y="0" width="183" height="71">
<path d="M4.04517 56.706V45.4375L32.4203 0.925273H42.1773V16.5227H36.4028L18.5148 44.7105V45.2392H58.8373V56.706H4.04517ZM36.6683 68.6024V53.2693L36.9338 48.2794V0.925273H50.4078V68.6024H36.6683Z" fill="#2862FF"/>
<path d="M95.0613 70.0894C89.353 70.0674 84.4413 68.6685 80.3261 65.8926C76.233 63.1168 73.0802 59.0963 70.8677 53.8311C68.6774 48.5658 67.5933 42.2321 67.6154 34.8299C67.6154 27.4498 68.7106 21.1601 70.9009 15.961C73.1134 10.7618 76.2662 6.80736 80.3593 4.09764C84.4745 1.36588 89.3752 0 95.0613 0C100.747 0 105.637 1.36588 109.73 4.09764C113.845 6.8294 117.009 10.7948 119.222 15.994C121.434 21.1711 122.529 27.4498 122.507 34.8299C122.507 42.2541 121.401 48.5989 119.188 53.8641C116.998 59.1293 113.856 63.1499 109.763 65.9257C105.67 68.7015 100.769 70.0894 95.0613 70.0894ZM95.0613 58.2261C98.9552 58.2261 102.064 56.2764 104.387 52.3771C106.71 48.4777 107.86 42.6286 107.838 34.8299C107.838 29.6968 107.307 25.423 106.245 22.0083C105.205 18.5936 103.723 16.027 101.798 14.3087C99.8955 12.5903 97.6499 11.7311 95.0613 11.7311C91.1894 11.7311 88.0919 13.6588 85.7688 17.5141C83.4457 21.3694 82.2731 27.1413 82.251 34.8299C82.251 40.0291 82.7709 44.369 83.8108 47.8498C84.8728 51.3086 86.3662 53.9082 88.2911 55.6486C90.2159 57.3669 92.4726 58.2261 95.0613 58.2261Z" fill="#2862FF"/>
<path d="M131.725 56.706V45.4375L160.1 0.925273H169.857V16.5227H164.082L146.195 44.7105V45.2392H186.517V56.706H131.725ZM164.348 68.6024V53.2693L164.613 48.2794V0.925273H178.088V68.6024H164.348Z" fill="#2862FF"/>
</mask>
<g mask="url(#mask1_1430_2102)">
<rect x="4.04541" y="41.6965" width="182.472" height="14.0179" fill="url(#paint1_linear_1430_2102)"/>
</g>
<mask id="mask2_1430_2102" style="mask-type:alpha" maskUnits="userSpaceOnUse" x="13" y="0" width="183" height="71">
<path d="M13.0334 56.706V45.4375L41.4086 0.925273H51.1656V16.5227H45.391L27.5031 44.7105V45.2392H67.8256V56.706H13.0334ZM45.6565 68.6024V53.2693L45.922 48.2794V0.925273H59.3961V68.6024H45.6565Z" fill="#2862FF"/>
<path d="M104.05 70.0894C98.3413 70.0674 93.4296 68.6685 89.3144 65.8926C85.2213 63.1168 82.0685 59.0963 79.856 53.831C77.6656 48.5658 76.5815 42.2321 76.6037 34.8299C76.6037 27.4498 77.6988 21.1601 79.8892 15.961C82.1017 10.7618 85.2545 6.80736 89.3476 4.09764C93.4628 1.36588 98.3634 0 104.05 0C109.736 0 114.625 1.36588 118.718 4.09764C122.834 6.82939 125.997 10.7948 128.21 15.994C130.422 21.1711 131.518 27.4498 131.495 34.8299C131.495 42.2541 130.389 48.5989 128.177 53.8641C125.986 59.1293 122.845 63.1499 118.751 65.9257C114.658 68.7015 109.758 70.0894 104.05 70.0894ZM104.05 58.2261C107.944 58.2261 111.052 56.2764 113.375 52.377C115.698 48.4777 116.849 42.6286 116.827 34.8299C116.827 29.6968 116.296 25.423 115.234 22.0083C114.194 18.5936 112.711 16.027 110.787 14.3087C108.884 12.5903 106.638 11.7311 104.05 11.7311C100.178 11.7311 97.0802 13.6588 94.7571 17.5141C92.434 21.3694 91.2614 27.1413 91.2392 34.8299C91.2392 40.0291 91.7592 44.369 92.799 47.8498C93.861 51.3086 95.3545 53.9082 97.2793 55.6485C99.2042 57.3669 101.461 58.2261 104.05 58.2261Z" fill="#2862FF"/>
<path d="M140.713 56.706V45.4375L169.088 0.925273H178.845V16.5227H173.071L155.183 44.7105V45.2392H195.505V56.706H140.713ZM173.336 68.6024V53.2693L173.602 48.2794V0.925273H187.076V68.6024H173.336Z" fill="#2862FF"/>
</mask>
<g mask="url(#mask2_1430_2102)">
<rect x="13.0332" y="27.6787" width="182.472" height="14.0179" fill="url(#paint2_linear_1430_2102)"/>
</g>
<mask id="mask3_1430_2102" style="mask-type:alpha" maskUnits="userSpaceOnUse" x="0" y="4" width="183" height="71">
<path d="M0 61.6166V50.3481L28.3751 5.83592H38.1322V21.4334H32.3576L14.4696 49.6212V50.1499H54.7922V61.6166H0ZM32.6231 73.513V58.1799L32.8886 53.1901V5.83592H46.3626V73.513H32.6231Z" fill="#2862FF"/>
<path d="M91.0161 75.0001C85.3079 74.978 80.3961 73.5791 76.2809 70.8033C72.1878 68.0275 69.035 64.0069 66.8226 58.7417C64.6322 53.4764 63.5481 47.1427 63.5702 39.7406C63.5702 32.3604 64.6654 26.0708 66.8558 20.8716C69.0682 15.6724 72.221 11.718 76.3141 9.00828C80.4293 6.27652 85.33 4.91064 91.0161 4.91064C96.7022 4.91064 101.592 6.27652 105.685 9.00828C109.8 11.74 112.964 15.7055 115.176 20.9046C117.389 26.0818 118.484 32.3604 118.462 39.7406C118.462 47.1648 117.356 53.5095 115.143 58.7747C112.953 64.04 109.811 68.0605 105.718 70.8363C101.625 73.6121 96.7243 75.0001 91.0161 75.0001ZM91.0161 63.1367C94.9101 63.1367 98.0186 61.1871 100.342 57.2877C102.665 53.3883 103.815 47.5393 103.793 39.7406C103.793 34.6075 103.262 30.3336 102.2 26.9189C101.16 23.5042 99.678 20.9377 97.7531 19.2193C95.8504 17.501 93.6047 16.6418 91.0161 16.6418C87.1442 16.6418 84.0468 18.5694 81.7236 22.4247C79.4005 26.28 78.2279 32.052 78.2058 39.7406C78.2058 44.9397 78.7257 49.2797 79.7656 52.7605C80.8276 56.2192 82.321 58.8188 84.2459 60.5592C86.1707 62.2776 88.4275 63.1367 91.0161 63.1367Z" fill="#2862FF"/>
<path d="M127.68 61.6166V50.3481L156.055 5.83592H165.812V21.4334H160.037L142.149 49.6212V50.1499H182.472V61.6166H127.68ZM160.303 73.513V58.1799L160.568 53.1901V5.83592H174.042V73.513H160.303Z" fill="#2862FF"/>
</mask>
<g mask="url(#mask3_1430_2102)">
<rect y="18.5715" width="182.472" height="14.0179" fill="url(#paint3_linear_1430_2102)"/>
</g>
<mask id="mask4_1430_2102" style="mask-type:alpha" maskUnits="userSpaceOnUse" x="5" y="0" width="183" height="71">
<path d="M5.39307 56.706V45.4375L33.7682 0.925273H43.5252V16.5227H37.7507L19.8627 44.7105V45.2392H60.1852V56.706H5.39307ZM38.0162 68.6024V53.2693L38.2817 48.2794V0.925273H51.7557V68.6024H38.0162Z" fill="#2862FF"/>
<path d="M96.4091 70.0894C90.7009 70.0674 85.7892 68.6685 81.674 65.8926C77.5809 63.1168 74.4281 59.0963 72.2156 53.831C70.0253 48.5658 68.9412 42.2321 68.9633 34.8299C68.9633 27.4498 70.0585 21.1601 72.2488 15.961C74.4613 10.7618 77.6141 6.80736 81.7072 4.09764C85.8224 1.36588 90.7231 0 96.4091 0C102.095 0 106.985 1.36588 111.078 4.09764C115.193 6.82939 118.357 10.7948 120.569 15.994C122.782 21.1711 123.877 27.4498 123.855 34.8299C123.855 42.2541 122.749 48.5989 120.536 53.8641C118.346 59.1293 115.204 63.1499 111.111 65.9257C107.018 68.7015 102.117 70.0894 96.4091 70.0894ZM96.4091 58.2261C100.303 58.2261 103.412 56.2764 105.735 52.377C108.058 48.4777 109.208 42.6286 109.186 34.8299C109.186 29.6968 108.655 25.423 107.593 22.0083C106.553 18.5936 105.071 16.027 103.146 14.3087C101.243 12.5903 98.9978 11.7311 96.4091 11.7311C92.5373 11.7311 89.4398 13.6588 87.1167 17.5141C84.7936 21.3694 83.621 27.1413 83.5989 34.8299C83.5989 40.0291 84.1188 44.369 85.1587 47.8498C86.2207 51.3086 87.7141 53.9082 89.6389 55.6485C91.5638 57.3669 93.8205 58.2261 96.4091 58.2261Z" fill="#2862FF"/>
<path d="M133.073 56.706V45.4375L161.448 0.925273H171.205V16.5227H165.43L147.542 44.7105V45.2392H187.865V56.706H133.073ZM165.696 68.6024V53.2693L165.961 48.2794V0.925273H179.435V68.6024H165.696Z" fill="#2862FF"/>
</mask>
<g mask="url(#mask4_1430_2102)">
<rect x="5.39307" width="182.472" height="14.0179" fill="url(#paint4_linear_1430_2102)"/>
</g>
<mask id="mask5_1430_2102" style="mask-type:alpha" maskUnits="userSpaceOnUse" x="16" y="0" width="183" height="71">
<path d="M16.1802 56.706V45.4375L44.5553 0.925273H54.3123V16.5227H48.5378L30.6498 44.7105V45.2392H70.9724V56.706H16.1802ZM48.8033 68.6024V53.2693L49.0688 48.2794V0.925273H62.5428V68.6024H48.8033Z" fill="#2862FF"/>
<path d="M107.196 70.0894C101.488 70.0674 96.5763 68.6685 92.4611 65.8926C88.368 63.1168 85.2152 59.0963 83.0027 53.8311C80.8124 48.5658 79.7283 42.2321 79.7504 34.8299C79.7504 27.4498 80.8456 21.1601 83.0359 15.961C85.2484 10.7618 88.4012 6.80736 92.4943 4.09764C96.6095 1.36588 101.51 0 107.196 0C112.882 0 117.772 1.36588 121.865 4.09764C125.98 6.8294 129.144 10.7948 131.357 15.994C133.569 21.1711 134.664 27.4498 134.642 34.8299C134.642 42.2541 133.536 48.5989 131.323 53.8641C129.133 59.1293 125.991 63.1499 121.898 65.9257C117.805 68.7015 112.904 70.0894 107.196 70.0894ZM107.196 58.2261C111.09 58.2261 114.199 56.2764 116.522 52.3771C118.845 48.4777 119.995 42.6286 119.973 34.8299C119.973 29.6969 119.442 25.423 118.38 22.0083C117.34 18.5936 115.858 16.027 113.933 14.3087C112.031 12.5903 109.785 11.7311 107.196 11.7311C103.324 11.7311 100.227 13.6588 97.9038 17.5141C95.5807 21.3694 94.4081 27.1413 94.386 34.8299C94.386 40.0291 94.9059 44.369 95.9458 47.8498C97.0078 51.3086 98.5012 53.9082 100.426 55.6486C102.351 57.3669 104.608 58.2261 107.196 58.2261Z" fill="#2862FF"/>
<path d="M143.86 56.706V45.4375L172.235 0.925273H181.992V16.5227H176.217L158.33 44.7105V45.2392H198.652V56.706H143.86ZM176.483 68.6024V53.2693L176.748 48.2794V0.925273H190.223V68.6024H176.483Z" fill="#2862FF"/>
</mask>
<g mask="url(#mask5_1430_2102)">
<rect x="16.1802" y="55.625" width="182.472" height="14.4643" fill="#8567FA"/>
</g>
<mask id="mask6_1430_2102" style="mask-type:alpha" maskUnits="userSpaceOnUse" x="16" y="0" width="184" height="71">
<path d="M16.6294 56.706V45.4375L45.0045 0.925273H54.7616V16.5227H48.987L31.099 44.7105V45.2392H71.4216V56.706H16.6294ZM49.2525 68.6024V53.2693L49.518 48.2794V0.925273H62.992V68.6024H49.2525Z" fill="#2862FF"/>
<path d="M107.645 70.0894C101.937 70.0674 97.0256 68.6685 92.9103 65.8926C88.8172 63.1168 85.6644 59.0963 83.452 53.8311C81.2616 48.5658 80.1775 42.2321 80.1996 34.8299C80.1996 27.4498 81.2948 21.1601 83.4851 15.961C85.6976 10.7618 88.8504 6.80736 92.9435 4.09764C97.0587 1.36588 101.959 0 107.645 0C113.332 0 118.221 1.36588 122.314 4.09764C126.429 6.8294 129.593 10.7948 131.806 15.994C134.018 21.1711 135.113 27.4498 135.091 34.8299C135.091 42.2541 133.985 48.5989 131.773 53.8641C129.582 59.1293 126.441 63.1499 122.347 65.9257C118.254 68.7015 113.354 70.0894 107.645 70.0894ZM107.645 58.2261C111.539 58.2261 114.648 56.2764 116.971 52.3771C119.294 48.4777 120.445 42.6286 120.423 34.8299C120.423 29.6968 119.892 25.423 118.83 22.0083C117.79 18.5936 116.307 16.027 114.382 14.3087C112.48 12.5903 110.234 11.7311 107.645 11.7311C103.774 11.7311 100.676 13.6588 98.353 17.5141C96.0299 21.3694 94.8573 27.1413 94.8352 34.8299C94.8352 40.0291 95.3551 44.369 96.395 47.8498C97.457 51.3086 98.9504 53.9082 100.875 55.6486C102.8 57.3669 105.057 58.2261 107.645 58.2261Z" fill="#2862FF"/>
<path d="M144.309 56.706V45.4375L172.684 0.925273H182.441V16.5227H176.667L158.779 44.7105V45.2392H199.101V56.706H144.309ZM176.932 68.6024V53.2693L177.198 48.2794V0.925273H190.672V68.6024H176.932Z" fill="#2862FF"/>
</mask>
<g mask="url(#mask6_1430_2102)">
<rect x="16.6289" y="41.6965" width="182.472" height="14.0179" fill="#8567FA"/>
</g>
<mask id="mask7_1430_2102" style="mask-type:alpha" maskUnits="userSpaceOnUse" x="16" y="0" width="184" height="71">
<path d="M16.6294 56.706V45.4375L45.0045 0.925273H54.7616V16.5227H48.987L31.099 44.7105V45.2392H71.4216V56.706H16.6294ZM49.2525 68.6024V53.2693L49.518 48.2794V0.925273H62.992V68.6024H49.2525Z" fill="#2862FF"/>
<path d="M107.645 70.0894C101.937 70.0674 97.0255 68.6685 92.9103 65.8926C88.8172 63.1168 85.6644 59.0963 83.452 53.831C81.2616 48.5658 80.1775 42.2321 80.1996 34.8299C80.1996 27.4498 81.2948 21.1601 83.4851 15.961C85.6976 10.7618 88.8504 6.80736 92.9435 4.09764C97.0587 1.36588 101.959 0 107.645 0C113.332 0 118.221 1.36588 122.314 4.09764C126.429 6.82939 129.593 10.7948 131.806 15.994C134.018 21.1711 135.113 27.4498 135.091 34.8299C135.091 42.2541 133.985 48.5989 131.773 53.8641C129.582 59.1293 126.441 63.1499 122.347 65.9257C118.254 68.7015 113.354 70.0894 107.645 70.0894ZM107.645 58.2261C111.539 58.2261 114.648 56.2764 116.971 52.377C119.294 48.4777 120.445 42.6286 120.423 34.8299C120.423 29.6968 119.892 25.423 118.83 22.0083C117.79 18.5936 116.307 16.027 114.382 14.3087C112.48 12.5903 110.234 11.7311 107.645 11.7311C103.774 11.7311 100.676 13.6588 98.353 17.5141C96.0299 21.3694 94.8573 27.1413 94.8352 34.8299C94.8352 40.0291 95.3551 44.369 96.395 47.8498C97.457 51.3086 98.9504 53.9082 100.875 55.6485C102.8 57.3669 105.057 58.2261 107.645 58.2261Z" fill="#2862FF"/>
<path d="M144.309 56.706V45.4375L172.684 0.925273H182.441V16.5227H176.667L158.779 44.7105V45.2392H199.101V56.706H144.309ZM176.932 68.6024V53.2693L177.198 48.2794V0.925273H190.672V68.6024H176.932Z" fill="#2862FF"/>
</mask>
<g mask="url(#mask7_1430_2102)">
<rect x="16.6289" y="27.6787" width="182.472" height="14.0179" fill="#8567FA"/>
</g>
<mask id="mask8_1430_2102" style="mask-type:alpha" maskUnits="userSpaceOnUse" x="5" y="0" width="183" height="71">
<path d="M5.39307 56.706V45.4375L33.7682 0.925273H43.5252V16.5227H37.7507L19.8627 44.7105V45.2392H60.1852V56.706H5.39307ZM38.0162 68.6024V53.2693L38.2817 48.2794V0.925273H51.7557V68.6024H38.0162Z" fill="#2862FF"/>
<path d="M96.4091 70.0894C90.7009 70.0674 85.7892 68.6685 81.674 65.8926C77.5809 63.1168 74.4281 59.0963 72.2156 53.831C70.0253 48.5658 68.9412 42.2321 68.9633 34.8299C68.9633 27.4498 70.0585 21.1601 72.2488 15.961C74.4613 10.7618 77.6141 6.80736 81.7072 4.09764C85.8224 1.36588 90.7231 0 96.4091 0C102.095 0 106.985 1.36588 111.078 4.09764C115.193 6.82939 118.357 10.7948 120.569 15.994C122.782 21.1711 123.877 27.4498 123.855 34.8299C123.855 42.2541 122.749 48.5989 120.536 53.8641C118.346 59.1293 115.204 63.1499 111.111 65.9257C107.018 68.7015 102.117 70.0894 96.4091 70.0894ZM96.4091 58.2261C100.303 58.2261 103.412 56.2764 105.735 52.377C108.058 48.4777 109.208 42.6286 109.186 34.8299C109.186 29.6968 108.655 25.423 107.593 22.0083C106.553 18.5936 105.071 16.027 103.146 14.3087C101.243 12.5903 98.9978 11.7311 96.4091 11.7311C92.5373 11.7311 89.4398 13.6588 87.1167 17.5141C84.7936 21.3694 83.621 27.1413 83.5989 34.8299C83.5989 40.0291 84.1188 44.369 85.1587 47.8498C86.2207 51.3086 87.7141 53.9082 89.6389 55.6485C91.5638 57.3669 93.8205 58.2261 96.4091 58.2261Z" fill="#2862FF"/>
<path d="M133.073 56.706V45.4375L161.448 0.925273H171.205V16.5227H165.43L147.542 44.7105V45.2392H187.865V56.706H133.073ZM165.696 68.6024V53.2693L165.961 48.2794V0.925273H179.435V68.6024H165.696Z" fill="#2862FF"/>
</mask>
<g mask="url(#mask8_1430_2102)">
<rect x="5.39307" y="13.6609" width="182.472" height="14.0179" fill="#8567FA"/>
</g>
<mask id="mask9_1430_2102" style="mask-type:alpha" maskUnits="userSpaceOnUse" x="12" y="0" width="184" height="71">
<path d="M12.5842 56.706V45.4375L40.9593 0.925273H50.7164V16.5227H44.9418L27.0539 44.7105V45.2392H67.3764V56.706H12.5842ZM45.2073 68.6024V53.2693L45.4728 48.2794V0.925273H58.9468V68.6024H45.2073Z" fill="#2862FF"/>
<path d="M103.6 70.0894C97.8921 70.0674 92.9804 68.6685 88.8652 65.8926C84.7721 63.1168 81.6193 59.0963 79.4068 53.831C77.2164 48.5658 76.1323 42.2321 76.1544 34.8299C76.1544 27.4498 77.2496 21.1601 79.44 15.961C81.6525 10.7618 84.8053 6.80736 88.8984 4.09764C93.0136 1.36588 97.9142 0 103.6 0C109.286 0 114.176 1.36588 118.269 4.09764C122.384 6.82939 125.548 10.7948 127.761 15.994C129.973 21.1711 131.068 27.4498 131.046 34.8299C131.046 42.2541 129.94 48.5989 127.727 53.8641C125.537 59.1293 122.395 63.1499 118.302 65.9257C114.209 68.7015 109.309 70.0894 103.6 70.0894ZM103.6 58.2261C107.494 58.2261 110.603 56.2764 112.926 52.377C115.249 48.4777 116.4 42.6286 116.377 34.8299C116.377 29.6968 115.846 25.423 114.784 22.0083C113.745 18.5936 112.262 16.027 110.337 14.3087C108.435 12.5903 106.189 11.7311 103.6 11.7311C99.7285 11.7311 96.631 13.6588 94.3079 17.5141C91.9848 21.3694 90.8121 27.1413 90.79 34.8299C90.79 40.0291 91.31 44.369 92.3498 47.8498C93.4118 51.3086 94.9052 53.9082 96.8301 55.6485C98.755 57.3669 101.012 58.2261 103.6 58.2261Z" fill="#2862FF"/>
<path d="M140.264 56.706V45.4375L168.639 0.925273H178.396V16.5227H172.622L154.734 44.7105V45.2392H195.056V56.706H140.264ZM172.887 68.6024V53.2693L173.153 48.2794V0.925273H186.627V68.6024H172.887Z" fill="#2862FF"/>
</mask>
<g mask="url(#mask9_1430_2102)">
<rect x="12.5842" width="182.472" height="14.0179" fill="#8567FA"/>
</g>
<mask id="mask10_1430_2102" style="mask-type:alpha" maskUnits="userSpaceOnUse" x="10" y="4" width="183" height="71">
<path d="M10.3372 61.1704V49.9019L38.7123 5.38963H48.4693V20.9871H42.6947L24.8068 49.1749V49.7036H65.1293V61.1704H10.3372ZM42.9602 73.0667V57.7336L43.2257 52.7438V5.38963H56.6998V73.0667H42.9602Z" fill="#2862FF"/>
<path d="M101.353 74.5538C95.645 74.5317 90.7333 73.1328 86.6181 70.357C82.525 67.5812 79.3722 63.5607 77.1597 58.2954C74.9694 53.0302 73.8852 46.6964 73.9074 39.2943C73.9074 31.9141 75.0025 25.6245 77.1929 20.4253C79.4054 15.2262 82.5582 11.2717 86.6513 8.562C90.7665 5.83024 95.6672 4.46436 101.353 4.46436C107.039 4.46436 111.929 5.83024 116.022 8.562C120.137 11.2938 123.301 15.2592 125.514 20.4584C127.726 25.6355 128.821 31.9141 128.799 39.2943C128.799 46.7185 127.693 53.0632 125.48 58.3285C123.29 63.5937 120.148 67.6142 116.055 70.39C111.962 73.1659 107.061 74.5538 101.353 74.5538ZM101.353 62.6905C105.247 62.6905 108.356 60.7408 110.679 56.8414C113.002 52.942 114.152 47.093 114.13 39.2943C114.13 34.1612 113.599 29.8873 112.537 26.4726C111.497 23.0579 110.015 20.4914 108.09 18.773C106.188 17.0547 103.942 16.1955 101.353 16.1955C97.4814 16.1955 94.3839 18.1231 92.0608 21.9785C89.7377 25.8338 88.5651 31.6057 88.543 39.2943C88.543 44.4934 89.0629 48.8334 90.1028 52.3142C91.1647 55.7729 92.6582 58.3725 94.583 60.1129C96.5079 61.8313 98.7646 62.6905 101.353 62.6905Z" fill="#2862FF"/>
<path d="M138.017 61.1704V49.9019L166.392 5.38963H176.149V20.9871H170.374L152.487 49.1749V49.7036H192.809V61.1704H138.017ZM170.64 73.0667V57.7336L170.905 52.7438V5.38963H184.38V73.0667H170.64Z" fill="#2862FF"/>
</mask>
<g mask="url(#mask10_1430_2102)">
<rect x="10.3369" y="60.0894" width="182.472" height="14.4643" fill="black"/>
</g>
<mask id="mask11_1430_2102" style="mask-type:alpha" maskUnits="userSpaceOnUse" x="10" y="0" width="183" height="71">
<path d="M10.3372 56.706V45.4375L38.7123 0.925273H48.4693V16.5227H42.6947L24.8068 44.7105V45.2392H65.1293V56.706H10.3372ZM42.9602 68.6024V53.2693L43.2257 48.2794V0.925273H56.6998V68.6024H42.9602Z" fill="#2862FF"/>
<path d="M101.353 70.0894C95.645 70.0674 90.7333 68.6685 86.6181 65.8926C82.525 63.1168 79.3722 59.0963 77.1597 53.8311C74.9694 48.5658 73.8852 42.2321 73.9074 34.8299C73.9074 27.4498 75.0025 21.1601 77.1929 15.961C79.4054 10.7618 82.5582 6.80736 86.6513 4.09764C90.7665 1.36588 95.6672 0 101.353 0C107.039 0 111.929 1.36588 116.022 4.09764C120.137 6.8294 123.301 10.7948 125.514 15.994C127.726 21.1711 128.821 27.4498 128.799 34.8299C128.799 42.2541 127.693 48.5989 125.48 53.8641C123.29 59.1293 120.148 63.1499 116.055 65.9257C111.962 68.7015 107.061 70.0894 101.353 70.0894ZM101.353 58.2261C105.247 58.2261 108.356 56.2764 110.679 52.3771C113.002 48.4777 114.152 42.6286 114.13 34.8299C114.13 29.6968 113.599 25.423 112.537 22.0083C111.497 18.5936 110.015 16.027 108.09 14.3087C106.188 12.5903 103.942 11.7311 101.353 11.7311C97.4814 11.7311 94.3839 13.6588 92.0608 17.5141C89.7377 21.3694 88.5651 27.1413 88.543 34.8299C88.543 40.0291 89.0629 44.369 90.1028 47.8498C91.1647 51.3086 92.6582 53.9082 94.583 55.6486C96.5079 57.3669 98.7646 58.2261 101.353 58.2261Z" fill="#2862FF"/>
<path d="M138.017 56.706V45.4375L166.392 0.925273H176.149V16.5227H170.374L152.487 44.7105V45.2392H192.809V56.706H138.017ZM170.64 68.6024V53.2693L170.905 48.2794V0.925273H184.38V68.6024H170.64Z" fill="#2862FF"/>
</mask>
<g mask="url(#mask11_1430_2102)">
<rect x="10.3369" y="41.6965" width="182.472" height="14.0179" fill="black"/>
</g>
<mask id="mask12_1430_2102" style="mask-type:alpha" maskUnits="userSpaceOnUse" x="17" y="0" width="184" height="71">
<path d="M17.5286 56.706V45.4375L45.9037 0.925273H55.6607V16.5227H49.8862L31.9982 44.7105V45.2392H72.3207V56.706H17.5286ZM50.1516 68.6024V53.2693L50.4171 48.2794V0.925273H63.8912V68.6024H50.1516Z" fill="#2862FF"/>
<path d="M108.545 70.0894C102.836 70.0674 97.9247 68.6685 93.8095 65.8926C89.7164 63.1168 86.5636 59.0963 84.3511 53.831C82.1608 48.5658 81.0766 42.2321 81.0988 34.8299C81.0988 27.4498 82.194 21.1601 84.3843 15.961C86.5968 10.7618 89.7496 6.80736 93.8427 4.09764C97.9579 1.36588 102.859 0 108.545 0C114.231 0 119.12 1.36588 123.213 4.09764C127.329 6.82939 130.492 10.7948 132.705 15.994C134.917 21.1711 136.013 27.4498 135.991 34.8299C135.991 42.2541 134.884 48.5989 132.672 53.8641C130.481 59.1293 127.34 63.1499 123.247 65.9257C119.154 68.7015 114.253 70.0894 108.545 70.0894ZM108.545 58.2261C112.439 58.2261 115.547 56.2764 117.87 52.377C120.193 48.4777 121.344 42.6286 121.322 34.8299C121.322 29.6968 120.791 25.423 119.729 22.0083C118.689 18.5936 117.207 16.027 115.282 14.3087C113.379 12.5903 111.133 11.7311 108.545 11.7311C104.673 11.7311 101.575 13.6588 99.2522 17.5141C96.9291 21.3694 95.7565 27.1413 95.7344 34.8299C95.7344 40.0291 96.2543 44.369 97.2942 47.8498C98.3562 51.3086 99.8496 53.9082 101.774 55.6485C103.699 57.3669 105.956 58.2261 108.545 58.2261Z" fill="#2862FF"/>
<path d="M145.208 56.706V45.4375L173.583 0.925273H183.34V16.5227H177.566L159.678 44.7105V45.2392H200V56.706H145.208ZM177.831 68.6024V53.2693L178.097 48.2794V0.925273H191.571V68.6024H177.831Z" fill="#2862FF"/>
</mask>
<g mask="url(#mask12_1430_2102)">
<rect x="17.5288" y="27.6787" width="182.472" height="14.0179" fill="black"/>
</g>
<mask id="mask13_1430_2102" style="mask-type:alpha" maskUnits="userSpaceOnUse" x="2" y="0" width="184" height="71">
<path d="M2.69678 56.706V45.4375L31.0719 0.925273H40.8289V16.5227H35.0544L17.1664 44.7105V45.2392H57.489V56.706H2.69678ZM35.3199 68.6024V53.2693L35.5854 48.2794V0.925273H49.0594V68.6024H35.3199Z" fill="#2862FF"/>
<path d="M93.7129 70.0894C88.0047 70.0674 83.0929 68.6685 78.9777 65.8926C74.8846 63.1168 71.7318 59.0963 69.5193 53.831C67.329 48.5658 66.2449 42.2321 66.267 34.8299C66.267 27.4498 67.3622 21.1601 69.5525 15.961C71.765 10.7618 74.9178 6.80736 79.0109 4.09764C83.1261 1.36588 88.0268 0 93.7129 0C99.3989 0 104.289 1.36588 108.382 4.09764C112.497 6.82939 115.661 10.7948 117.873 15.994C120.086 21.1711 121.181 27.4498 121.159 34.8299C121.159 42.2541 120.052 48.5989 117.84 53.8641C115.65 59.1293 112.508 63.1499 108.415 65.9257C104.322 68.7015 99.4211 70.0894 93.7129 70.0894ZM93.7129 58.2261C97.6068 58.2261 100.715 56.2764 103.038 52.377C105.362 48.4777 106.512 42.6286 106.49 34.8299C106.49 29.6968 105.959 25.423 104.897 22.0083C103.857 18.5936 102.375 16.027 100.45 14.3087C98.5471 12.5903 96.3015 11.7311 93.7129 11.7311C89.841 11.7311 86.7435 13.6588 84.4204 17.5141C82.0973 21.3694 80.9247 27.1413 80.9026 34.8299C80.9026 40.0291 81.4225 44.369 82.4624 47.8498C83.5244 51.3086 85.0178 53.9082 86.9427 55.6485C88.8675 57.3669 91.1243 58.2261 93.7129 58.2261Z" fill="#2862FF"/>
<path d="M130.376 56.706V45.4375L158.752 0.925273H168.509V16.5227H162.734L144.846 44.7105V45.2392H185.169V56.706H130.376ZM163 68.6024V53.2693L163.265 48.2794V0.925273H176.739V68.6024H163Z" fill="#2862FF"/>
</mask>
<g mask="url(#mask13_1430_2102)">
<rect x="2.69678" y="13.6609" width="182.472" height="14.0179" fill="black"/>
</g>
<mask id="mask14_1430_2102" style="mask-type:alpha" maskUnits="userSpaceOnUse" x="14" y="0" width="184" height="71">
<path d="M14.8318 56.706V45.4375L43.2069 0.925273H52.964V16.5227H47.1894L29.3014 44.7105V45.2392H69.624V56.706H14.8318ZM47.4549 68.6024V53.2693L47.7204 48.2794V0.925273H61.1944V68.6024H47.4549Z" fill="#2862FF"/>
<path d="M105.848 70.0894C100.14 70.0674 95.2279 68.6685 91.1127 65.8926C87.0196 63.1168 83.8668 59.0963 81.6544 53.831C79.464 48.5658 78.3799 42.2321 78.402 34.8299C78.402 27.4498 79.4972 21.1601 81.6875 15.961C83.9 10.7618 87.0528 6.80736 91.1459 4.09764C95.2611 1.36588 100.162 0 105.848 0C111.534 0 116.424 1.36588 120.517 4.09764C124.632 6.82939 127.796 10.7948 130.008 15.994C132.221 21.1711 133.316 27.4498 133.294 34.8299C133.294 42.2541 132.187 48.5989 129.975 53.8641C127.785 59.1293 124.643 63.1499 120.55 65.9257C116.457 68.7015 111.556 70.0894 105.848 70.0894ZM105.848 58.2261C109.742 58.2261 112.85 56.2764 115.174 52.377C117.497 48.4777 118.647 42.6286 118.625 34.8299C118.625 29.6968 118.094 25.423 117.032 22.0083C115.992 18.5936 114.51 16.027 112.585 14.3087C110.682 12.5903 108.436 11.7311 105.848 11.7311C101.976 11.7311 98.8785 13.6588 96.5554 17.5141C94.2323 21.3694 93.0597 27.1413 93.0376 34.8299C93.0376 40.0291 93.5575 44.369 94.5974 47.8498C95.6594 51.3086 97.1528 53.9082 99.0777 55.6485C101.003 57.3669 103.259 58.2261 105.848 58.2261Z" fill="#2862FF"/>
<path d="M142.512 56.706V45.4375L170.887 0.925273H180.644V16.5227H174.869L156.981 44.7105V45.2392H197.304V56.706H142.512ZM175.135 68.6024V53.2693L175.4 48.2794V0.925273H188.874V68.6024H175.135Z" fill="#2862FF"/>
</mask>
<g mask="url(#mask14_1430_2102)">
<rect x="14.8318" width="182.472" height="14.0179" fill="black"/>
</g>
<defs>
<linearGradient id="paint0_linear_1430_2102" x1="4.49414" y1="70.0893" x2="174.299" y2="15.9192" gradientUnits="userSpaceOnUse">
<stop stop-color="#8567FA"/>
<stop offset="1" stop-color="#4FACE2"/>
</linearGradient>
<linearGradient id="paint1_linear_1430_2102" x1="4.04541" y1="55.7144" x2="172.842" y2="0.151178" gradientUnits="userSpaceOnUse">
<stop stop-color="#8567FA"/>
<stop offset="1" stop-color="#4FACE2"/>
</linearGradient>
<linearGradient id="paint2_linear_1430_2102" x1="13.0332" y1="41.6966" x2="181.829" y2="-13.8666" gradientUnits="userSpaceOnUse">
<stop stop-color="#8567FA"/>
<stop offset="1" stop-color="#4FACE2"/>
</linearGradient>
<linearGradient id="paint3_linear_1430_2102" x1="-1.37517e-07" y1="32.5894" x2="168.796" y2="-22.9738" gradientUnits="userSpaceOnUse">
<stop stop-color="#8567FA"/>
<stop offset="1" stop-color="#4FACE2"/>
</linearGradient>
<linearGradient id="paint4_linear_1430_2102" x1="5.39307" y1="14.0179" x2="174.189" y2="-41.5454" gradientUnits="userSpaceOnUse">
<stop stop-color="#8567FA"/>
<stop offset="1" stop-color="#4FACE2"/>
</linearGradient>
</defs>
</svg>
