<svg width="24" height="25" viewBox="0 0 24 25" fill="none" xmlns="http://www.w3.org/2000/svg">
<path d="M17 8.5C17.5523 8.5 18 8.05228 18 7.5C18 6.94772 17.5523 6.5 17 6.5C16.4477 6.5 16 6.94772 16 7.5C16 8.05228 16.4477 8.5 17 8.5Z" fill="#8567FA"/>
<path d="M21 7.5C21 8.05228 20.5523 8.5 20 8.5C19.4477 8.5 19 8.05228 19 7.5C19 6.94772 19.4477 6.5 20 6.5C20.5523 6.5 21 6.94772 21 7.5Z" fill="#8567FA"/>
<path d="M3 3.5C1.34315 3.5 0 4.84315 0 6.5V12.5C0 14.1569 1.34315 15.5 3 15.5H21C22.6569 15.5 24 14.1569 24 12.5V6.5C24 4.84315 22.6569 3.5 21 3.5H3ZM2 6.5C2 5.94772 2.44772 5.5 3 5.5H21C21.5523 5.5 22 5.94771 22 6.5V12.5C22 13.0523 21.5523 13.5 21 13.5H20V10.5C20 9.94772 19.5523 9.5 19 9.5H5C4.44772 9.5 4 9.94772 4 10.5V13.5H3C2.44772 13.5 2 13.0523 2 12.5V6.5ZM6 11.5H18V13.5H6V11.5Z" fill="#8567FA"/>
<path d="M13 17.5C13 16.9477 12.5523 16.5 12 16.5C11.4477 16.5 11 16.9477 11 17.5V21.5C11 22.0523 11.4477 22.5 12 22.5C12.5523 22.5 13 22.0523 13 21.5V17.5Z" fill="#8567FA"/>
<path d="M7 16.5C7.55228 16.5 8 16.9477 8 17.5C8 18.5455 7.89967 19.5203 7.50796 20.3691C7.09707 21.2593 6.41397 21.911 5.44721 22.3944C4.95324 22.6414 4.35256 22.4412 4.10557 21.9472C3.85858 21.4532 4.05881 20.8526 4.55279 20.6056C5.18603 20.289 5.50293 19.9407 5.69204 19.5309C5.90033 19.0797 6 18.4545 6 17.5C6 16.9477 6.44772 16.5 7 16.5Z" fill="#8567FA"/>
<path d="M16 17.5C16 16.9477 16.4477 16.5 17 16.5C17.5523 16.5 18 16.9477 18 17.5C18 18.4545 18.0997 19.0797 18.308 19.5309C18.4971 19.9407 18.814 20.289 19.4472 20.6056C19.9412 20.8526 20.1414 21.4532 19.8944 21.9472C19.6474 22.4412 19.0468 22.6414 18.5528 22.3944C17.586 21.911 16.9029 21.2593 16.492 20.3691C16.1003 19.5203 16 18.5455 16 17.5Z" fill="#8567FA"/>
</svg>
