<svg width="24" height="25" viewBox="0 0 24 25" fill="none" xmlns="http://www.w3.org/2000/svg">
<g clip-path="url(#clip0_1048_4667)">
<path d="M24 0.5H0V24.5H24V0.5Z" fill="white" fill-opacity="0.01"/>
<path fill-rule="evenodd" clip-rule="evenodd" d="M6.75 16.5C7.44035 16.5 8 15.9404 8 15.25C8 14.5597 7.44035 14 6.75 14C6.05965 14 5.5 14.5597 5.5 15.25C5.5 15.9404 6.05965 16.5 6.75 16.5Z" fill="#8567FA"/>
<path fill-rule="evenodd" clip-rule="evenodd" d="M17.25 16.5C17.9404 16.5 18.5 15.9404 18.5 15.25C18.5 14.5597 17.9404 14 17.25 14C16.5597 14 16 14.5597 16 15.25C16 15.9404 16.5597 16.5 17.25 16.5Z" fill="#8567FA"/>
<path d="M3.5 19C2.67158 19 2 18.3285 2 17.5V12.8548C2 11.7181 2.64243 10.679 3.6593 10.1711L4.00027 10.0007L5.15525 5.04597C5.3663 4.14058 6.17335 3.5 7.103 3.5H16.9471C17.8837 3.5 18.6949 4.14999 18.899 5.06408L20.0016 10.0007L20.3417 10.1708C21.358 10.679 22 11.7177 22 12.854V17.5C22 18.3285 21.3285 19 20.5 19H19.5016V19.5C19.5016 20.6046 18.6053 21.5 17.5008 21.5C16.3962 21.5 15.5 20.6046 15.5 19.5V19H8.5V19.5002C8.5 20.6047 7.60465 21.5 6.50015 21.5C5.39565 21.5 4.50027 20.6047 4.50027 19.5002V19H3.5Z" stroke="#8567FA" stroke-width="2" stroke-linejoin="round"/>
<path d="M7 11.5H17L16.174 7.78305C16.0723 7.32555 15.6666 7 15.1979 7H8.80215C8.33345 7 7.92765 7.32555 7.826 7.78305L7 11.5Z" stroke="#8567FA" stroke-width="2" stroke-linejoin="round"/>
</g>
<defs>
<clipPath id="clip0_1048_4667">
<rect width="24" height="24" fill="white" transform="translate(0 0.5)"/>
</clipPath>
</defs>
</svg>
