<svg width="24" height="25" viewBox="0 0 24 25" fill="none" xmlns="http://www.w3.org/2000/svg">
<g clip-path="url(#clip0_1048_4579)">
<path d="M4.99991 7.5C4.99991 3.63401 8.13392 0.5 11.9999 0.5C15.8659 0.5 18.9999 3.63401 18.9999 7.5V8.85816C18.9999 9.83813 19.1579 10.8117 19.4678 11.7414L20.0711 13.5513C20.6807 15.3802 19.4349 17.2653 17.5782 17.4798L17.997 22.9233C18.0393 23.474 17.6273 23.9547 17.0766 23.9971C16.5259 24.0394 16.0452 23.6274 16.0029 23.0767L15.5739 17.5H8.42594L7.99696 23.0767C7.95461 23.6274 7.47387 24.0394 6.92321 23.9971C6.37255 23.9547 5.9605 23.474 6.00285 22.9233L6.42159 17.4798C4.56495 17.2653 3.31909 15.3802 3.92871 13.5513L4.53203 11.7414C4.84192 10.8117 4.99991 9.83813 4.99991 8.85816V7.5ZM16.5108 15.5H17.2251C17.9076 15.5 18.3896 14.8313 18.1737 14.1838L17.5704 12.3738C17.1926 11.2402 16.9999 10.0531 16.9999 8.85816V7.5C16.9999 4.73858 14.7613 2.5 11.9999 2.5C9.23849 2.5 6.99991 4.73858 6.99991 7.5V8.85816C6.99991 10.0531 6.80727 11.2402 6.4294 12.3738L5.82608 14.1838C5.61023 14.8313 6.0922 15.5 6.77476 15.5H16.4911C16.4977 15.4999 16.5043 15.4999 16.5108 15.5Z" fill="#8567FA"/>
</g>
<defs>
<clipPath id="clip0_1048_4579">
<rect width="24" height="24" fill="white" transform="translate(0 0.5)"/>
</clipPath>
</defs>
</svg>
