<svg width="24" height="25" viewBox="0 0 24 25" fill="none" xmlns="http://www.w3.org/2000/svg">
<g clip-path="url(#clip0_1048_4573)">
<path d="M15.5 11.25C15.5 10.8358 15.1642 10.5 14.75 10.5C14.3358 10.5 14 10.8358 14 11.25V13.75C14 14.1642 14.3358 14.5 14.75 14.5C15.1642 14.5 15.5 14.1642 15.5 13.75V11.25Z" fill="#8567FA"/>
<path d="M3 3.5C3 1.84314 4.34315 0.5 6 0.5H18C19.6569 0.5 21 1.84315 21 3.5V21.5C21 23.1569 19.6569 24.5 18 24.5H6C4.34315 24.5 3 23.1569 3 21.5V3.5ZM6 2.5C5.44771 2.5 5 2.94772 5 3.5V21.5C5 22.0523 5.44772 22.5 6 22.5H11V2.5H6ZM19 21.5V3.5C19 2.94772 18.5523 2.5 18 2.5H13V22.5H18C18.5523 22.5 19 22.0523 19 21.5Z" fill="#8567FA"/>
</g>
<defs>
<clipPath id="clip0_1048_4573">
<rect width="24" height="24" fill="white" transform="translate(0 0.5)"/>
</clipPath>
</defs>
</svg>
