<svg width="24" height="25" viewBox="0 0 24 25" fill="none" xmlns="http://www.w3.org/2000/svg">
<g clip-path="url(#clip0_1048_4654)">
<path d="M24 0.5H0V24.5H24V0.5Z" fill="white" fill-opacity="0.01"/>
<path d="M19 2.5H5C4.44772 2.5 4 2.94772 4 3.5V21.5C4 22.0523 4.44772 22.5 5 22.5H19C19.5523 22.5 20 22.0523 20 21.5V3.5C20 2.94772 19.5523 2.5 19 2.5Z" stroke="#8567FA" stroke-width="2"/>
<path d="M4 8.25H20" stroke="#8567FA" stroke-width="2" stroke-linecap="round" stroke-linejoin="round"/>
</g>
<path d="M15 5.5L17 5.5" stroke="#8567FA" stroke-width="2" stroke-linecap="round" stroke-linejoin="round"/>
<path d="M7 6.5C7.55228 6.5 8 6.05228 8 5.5C8 4.94772 7.55228 4.5 7 4.5C6.44772 4.5 6 4.94772 6 5.5C6 6.05228 6.44772 6.5 7 6.5Z" fill="#8567FA"/>
<path d="M13.5 11.5C13.6075 11.5 13.9741 11.6132 14.3733 12.4117C14.7427 13.1504 15 14.2409 15 15.5C15 16.7591 14.7427 17.8496 14.3733 18.5883C13.9741 19.3868 13.6075 19.5 13.5 19.5C13.3925 19.5 13.0259 19.3868 12.6267 18.5883C12.2573 17.8496 12 16.7591 12 15.5C12 14.2409 12.2573 13.1504 12.6267 12.4117C13.0259 11.6132 13.3925 11.5 13.5 11.5Z" stroke="#8567FA" stroke-width="2"/>
<path d="M10.5 11.5C10.6075 11.5 10.9741 11.6132 11.3733 12.4117C11.7427 13.1504 12 14.2409 12 15.5C12 16.7591 11.7427 17.8496 11.3733 18.5883C10.9741 19.3868 10.6075 19.5 10.5 19.5C10.3925 19.5 10.0259 19.3868 9.62666 18.5883C9.25731 17.8496 9 16.7591 9 15.5C9 14.2409 9.25731 13.1504 9.62666 12.4117C10.0259 11.6132 10.3925 11.5 10.5 11.5Z" stroke="#8567FA" stroke-width="2"/>
<defs>
<clipPath id="clip0_1048_4654">
<rect width="24" height="24" fill="white" transform="translate(0 0.5)"/>
</clipPath>
</defs>
</svg>
