<svg width="24" height="25" viewBox="0 0 24 25" fill="none" xmlns="http://www.w3.org/2000/svg">
<g clip-path="url(#clip0_1048_4567)">
<path d="M24 0.5H0V24.5H24V0.5Z" fill="white" fill-opacity="0.01"/>
<path d="M4 6.5C4 5.67155 4.67158 5 5.5 5H18.5C19.3285 5 20 5.67155 20 6.5V12H4V6.5Z" stroke="#8567FA" stroke-width="2" stroke-linecap="round" stroke-linejoin="round"/>
<path d="M3 18V20" stroke="#8567FA" stroke-width="2" stroke-linecap="round" stroke-linejoin="round"/>
<path d="M21 18V20" stroke="#8567FA" stroke-width="2" stroke-linecap="round" stroke-linejoin="round"/>
<path d="M10 9.5H7C6.17155 9.5 5.5 10.1715 5.5 11V12H11.5V11C11.5 10.1715 10.8285 9.5 10 9.5Z" stroke="#8567FA" stroke-width="2" stroke-linecap="round" stroke-linejoin="round"/>
<path d="M17 9.5H14C13.1715 9.5 12.5 10.1715 12.5 11V12H18.5V11C18.5 10.1715 17.8285 9.5 17 9.5Z" stroke="#8567FA" stroke-width="2" stroke-linecap="round" stroke-linejoin="round"/>
<path d="M2 13.5C2 12.6715 2.67158 12 3.5 12H20.5C21.3285 12 22 12.6715 22 13.5V18H2V13.5Z" stroke="#8567FA" stroke-width="2" stroke-linecap="round" stroke-linejoin="round"/>
</g>
<defs>
<clipPath id="clip0_1048_4567">
<rect width="24" height="24" fill="white" transform="translate(0 0.5)"/>
</clipPath>
</defs>
</svg>
