<svg width="24" height="25" viewBox="0 0 24 25" fill="none" xmlns="http://www.w3.org/2000/svg">
<g clip-path="url(#clip0_706_1442)">
<path d="M24 0.5H0V24.5H24V0.5Z" fill="white" fill-opacity="0.01"/>
<path fill-rule="evenodd" clip-rule="evenodd" d="M12 19.5C16.9706 19.5 21 15.339 21 12.5C21 9.661 16.9706 5.5 12 5.5C7.02945 5.5 3 9.6639 3 12.5C3 15.3361 7.02945 19.5 12 19.5Z" stroke="#8567FA" stroke-width="2" stroke-linejoin="round"/>
<path d="M12 15.5C13.6568 15.5 15 14.1568 15 12.5C15 10.8432 13.6568 9.5 12 9.5C10.3432 9.5 9 10.8432 9 12.5C9 14.1568 10.3432 15.5 12 15.5Z" stroke="#8567FA" stroke-width="2" stroke-linejoin="round"/>
<path d="M6 21.5L18 3.5" stroke="#8567FA" stroke-width="2" stroke-linecap="round"/>
</g>
<defs>
<clipPath id="clip0_706_1442">
<rect width="24" height="24" fill="white" transform="translate(0 0.5)"/>
</clipPath>
</defs>
</svg>
