<svg width="30" height="30" viewBox="0 0 30 30" fill="none" xmlns="http://www.w3.org/2000/svg">
<g clip-path="url(#clip0_430_1088)">
<circle cx="15" cy="15" r="15" fill="#AE99FF"/>
<g clip-path="url(#clip1_430_1088)">
<path d="M22.8001 7.19991H7.20007V22.7999H22.8001V7.19991Z" fill="white" fill-opacity="0.01"/>
<path d="M11.7501 12.075C13.545 12.075 15.0001 11.3475 15.0001 10.45C15.0001 9.55253 13.545 8.825 11.7501 8.825C9.9552 8.825 8.50012 9.55253 8.50012 10.45C8.50012 11.3475 9.9552 12.075 11.7501 12.075Z" stroke="white" stroke-width="1.2" stroke-linecap="round" stroke-linejoin="round"/>
<path d="M8.50012 10.4498C8.50012 10.4498 8.50012 11.8274 8.50012 12.7248C8.50012 13.6223 9.9552 14.3498 11.7501 14.3498C13.545 14.3498 15.0001 13.6223 15.0001 12.7248C15.0001 12.1932 15.0001 10.4498 15.0001 10.4498" stroke="white" stroke-width="1.2" stroke-linecap="round" stroke-linejoin="round"/>
<path d="M8.50012 12.725C8.50012 12.725 8.50012 14.1026 8.50012 15C8.50012 15.8975 9.9552 16.625 11.7501 16.625C13.545 16.625 15.0001 15.8975 15.0001 15C15.0001 14.4684 15.0001 12.725 15.0001 12.725" stroke="white" stroke-width="1.2" stroke-linecap="round" stroke-linejoin="round"/>
<path d="M8.50012 14.9999C8.50012 14.9999 8.50012 16.3775 8.50012 17.2749C8.50012 18.1724 9.9552 18.8999 11.7501 18.8999C13.545 18.8999 15.0001 18.1724 15.0001 17.2749C15.0001 16.7433 15.0001 14.9999 15.0001 14.9999" stroke="white" stroke-width="1.2" stroke-linecap="round" stroke-linejoin="round"/>
<path d="M8.50012 17.2748C8.50012 17.2748 8.50012 18.6524 8.50012 19.5498C8.50012 20.4473 9.9552 21.1748 11.7501 21.1748C13.545 21.1748 15.0001 20.4473 15.0001 19.5498C15.0001 19.0182 15.0001 17.2748 15.0001 17.2748" stroke="white" stroke-width="1.2" stroke-linecap="round" stroke-linejoin="round"/>
<path d="M18.2501 16.6248C20.045 16.6248 21.5001 15.8973 21.5001 14.9998C21.5001 14.1023 20.045 13.3748 18.2501 13.3748C16.4552 13.3748 15.0001 14.1023 15.0001 14.9998C15.0001 15.8973 16.4552 16.6248 18.2501 16.6248Z" stroke="white" stroke-width="1.2" stroke-linecap="round" stroke-linejoin="round"/>
<path d="M15.0001 14.9999C15.0001 14.9999 15.0001 16.3775 15.0001 17.2749C15.0001 18.1724 16.4552 18.8999 18.2501 18.8999C20.045 18.8999 21.5001 18.1724 21.5001 17.2749C21.5001 16.7433 21.5001 14.9999 21.5001 14.9999" stroke="white" stroke-width="1.2" stroke-linecap="round" stroke-linejoin="round"/>
<path d="M15.0001 17.2748C15.0001 17.2748 15.0001 18.6524 15.0001 19.5498C15.0001 20.4473 16.4552 21.1748 18.2501 21.1748C20.045 21.1748 21.5001 20.4473 21.5001 19.5498C21.5001 19.0182 21.5001 17.2748 21.5001 17.2748" stroke="white" stroke-width="1.2" stroke-linecap="round" stroke-linejoin="round"/>
</g>
</g>
<defs>
<clipPath id="clip0_430_1088">
<rect width="30" height="30" fill="white"/>
</clipPath>
<clipPath id="clip1_430_1088">
<rect width="15.6" height="15.6" fill="white" transform="translate(7.20007 7.19991)"/>
</clipPath>
</defs>
</svg>
