<svg width="24" height="25" viewBox="0 0 24 25" fill="none" xmlns="http://www.w3.org/2000/svg">
<g clip-path="url(#clip0_1048_4645)">
<path d="M15.75 4.5C16.1642 4.5 16.5 4.83579 16.5 5.25V6.75C16.5 7.16421 16.1642 7.5 15.75 7.5C15.3358 7.5 15 7.16421 15 6.75V5.25C15 4.83579 15.3358 4.5 15.75 4.5Z" fill="#8567FA"/>
<path d="M16.5 14.25C16.5 13.8358 16.1642 13.5 15.75 13.5C15.3358 13.5 15 13.8358 15 14.25V15.75C15 16.1642 15.3358 16.5 15.75 16.5C16.1642 16.5 16.5 16.1642 16.5 15.75V14.25Z" fill="#8567FA"/>
<path d="M4 3.5C4 1.84315 5.34315 0.5 7 0.5H17C18.6569 0.5 20 1.84315 20 3.5V21.5C20 23.1569 18.6569 24.5 17 24.5H7C5.34315 24.5 4 23.1569 4 21.5V3.5ZM7 2.5C6.44772 2.5 6 2.94772 6 3.5V9.54445H18V3.5C18 2.94772 17.5523 2.5 17 2.5H7ZM18 11.5444H6V21.5C6 22.0523 6.44772 22.5 7 22.5H17C17.5523 22.5 18 22.0523 18 21.5V11.5444Z" fill="#8567FA"/>
</g>
<defs>
<clipPath id="clip0_1048_4645">
<rect width="24" height="24" fill="white" transform="translate(0 0.5)"/>
</clipPath>
</defs>
</svg>
