<svg width="24" height="25" viewBox="0 0 24 25" fill="none" xmlns="http://www.w3.org/2000/svg">
<g clip-path="url(#clip0_1048_4648)">
<path d="M24 0.5H0V24.5H24V0.5Z" fill="white" fill-opacity="0.01"/>
<path d="M21 4.5H3C2.44772 4.5 2 4.94772 2 5.5V18.5C2 19.0523 2.44772 19.5 3 19.5H21C21.5523 19.5 22 19.0523 22 18.5V5.5C22 4.94772 21.5523 4.5 21 4.5Z" stroke="#8567FA" stroke-width="2"/>
<path d="M19 9H17" stroke="#8567FA" stroke-width="2" stroke-linecap="round" stroke-linejoin="round"/>
<path d="M19 12H17" stroke="#8567FA" stroke-width="2" stroke-linecap="round" stroke-linejoin="round"/>
<path d="M13.5 9H5V15H13.5V9Z" stroke="#8567FA" stroke-width="2" stroke-linecap="round" stroke-linejoin="round"/>
<path d="M18 16C18.5523 16 19 15.5523 19 15C19 14.4477 18.5523 14 18 14C17.4477 14 17 14.4477 17 15C17 15.5523 17.4477 16 18 16Z" fill="#8567FA"/>
</g>
<defs>
<clipPath id="clip0_1048_4648">
<rect width="24" height="24" fill="white" transform="translate(0 0.5)"/>
</clipPath>
</defs>
</svg>
