<svg width="24" height="25" viewBox="0 0 24 25" fill="none" xmlns="http://www.w3.org/2000/svg">
<path d="M19.5 3.5H4.5C3.67157 3.5 3 4.17157 3 5V20C3 20.8284 3.67157 21.5 4.5 21.5H19.5C20.3284 21.5 21 20.8284 21 20V5C21 4.17157 20.3284 3.5 19.5 3.5Z" stroke="#8567FA" stroke-width="2" stroke-linejoin="round"/>
<path d="M13 3.5H16" stroke="#8567FA" stroke-width="2" stroke-linecap="round" stroke-linejoin="round"/>
<path d="M3 10V13" stroke="#8567FA" stroke-width="2" stroke-linecap="round" stroke-linejoin="round"/>
<path d="M21 10V13" stroke="#8567FA" stroke-width="2" stroke-linecap="round" stroke-linejoin="round"/>
<circle cx="8" cy="8.5" r="2.25" transform="rotate(-90 8 8.5)" stroke="#8567FA" stroke-width="1.5"/>
<circle cx="8" cy="16.5" r="2.25" transform="rotate(-90 8 16.5)" fill="#8567FA" stroke="#8567FA" stroke-width="1.5"/>
<circle cx="16" cy="8.5" r="2.25" transform="rotate(-90 16 8.5)" stroke="#8567FA" stroke-width="1.5"/>
<path d="M15 14.502L17 14.5" stroke="#8567FA" stroke-width="2" stroke-linecap="round" stroke-linejoin="round"/>
<path d="M15 18.502L17 18.5" stroke="#8567FA" stroke-width="2" stroke-linecap="round" stroke-linejoin="round"/>
</svg>
