<svg width="24" height="25" viewBox="0 0 24 25" fill="none" xmlns="http://www.w3.org/2000/svg">
<circle cx="12" cy="12.5" r="10" fill="white"/>
<path fill-rule="evenodd" clip-rule="evenodd" d="M13 9.5C13 8.94772 12.5523 8.5 12 8.5C11.4477 8.5 11 8.94772 11 9.5V11.5H9C8.44772 11.5 8 11.9477 8 12.5C8 13.0523 8.44772 13.5 9 13.5H11V15.5C11 16.0523 11.4477 16.5 12 16.5C12.5523 16.5 13 16.0523 13 15.5V13.5H15C15.5523 13.5 16 13.0523 16 12.5C16 11.9477 15.5523 11.5 15 11.5H13V9.5Z" fill="#8567FA"/>
</svg>
