<svg width="33" height="34" viewBox="0 0 33 34" fill="none" xmlns="http://www.w3.org/2000/svg">
<path fill-rule="evenodd" clip-rule="evenodd" d="M7.4689 16.8258C12.279 14.7301 15.4865 13.3486 17.0913 12.681C21.6736 10.7751 22.6257 10.444 23.2463 10.4331C23.3828 10.4307 23.688 10.4645 23.8857 10.6249C24.0526 10.7604 24.0985 10.9434 24.1205 11.0718C24.1425 11.2002 24.1698 11.4928 24.1481 11.7213C23.8998 14.3304 22.8253 20.6618 22.2787 23.584C22.0474 24.8205 21.592 25.2351 21.1511 25.2756C20.1929 25.3638 19.4653 24.6424 18.5373 24.0341C17.085 23.0821 16.2646 22.4895 14.855 21.5606C13.2259 20.4871 14.282 19.897 15.2104 18.9328C15.4534 18.6804 19.6752 14.8404 19.7569 14.492C19.7671 14.4484 19.7766 14.286 19.6801 14.2003C19.5836 14.1145 19.4412 14.1439 19.3385 14.1672C19.1928 14.2002 16.8729 15.7336 12.3787 18.7674C11.7202 19.2195 11.1237 19.4398 10.5893 19.4283C10.0002 19.4156 8.86692 19.0952 8.02446 18.8213C6.99115 18.4855 6.16989 18.3079 6.2414 17.7374C6.27865 17.4403 6.68782 17.1364 7.4689 16.8258Z" fill="url(#paint0_linear_722_1389)"/>
<defs>
<linearGradient id="paint0_linear_722_1389" x1="6.23706" y1="25.283" x2="24.5921" y2="24.7229" gradientUnits="userSpaceOnUse">
<stop stop-color="#8567FA"/>
<stop offset="1" stop-color="#4FACE2"/>
</linearGradient>
</defs>
</svg>
