<svg width="34" height="34" viewBox="0 0 34 34" fill="none" xmlns="http://www.w3.org/2000/svg">
<path fill-rule="evenodd" clip-rule="evenodd" d="M7.9689 16.8258C12.779 14.7301 15.9865 13.3486 17.5913 12.681C22.1736 10.7751 23.1257 10.444 23.7463 10.4331C23.8828 10.4307 24.188 10.4645 24.3857 10.6249C24.5526 10.7604 24.5985 10.9434 24.6205 11.0718C24.6425 11.2002 24.6698 11.4928 24.6481 11.7213C24.3998 14.3304 23.3253 20.6618 22.7787 23.584C22.5474 24.8205 22.092 25.2351 21.6511 25.2756C20.6929 25.3638 19.9653 24.6424 19.0373 24.0341C17.585 23.0821 16.7646 22.4895 15.355 21.5606C13.7259 20.4871 14.782 19.897 15.7104 18.9328C15.9534 18.6804 20.1752 14.8404 20.2569 14.492C20.2671 14.4484 20.2766 14.286 20.1801 14.2003C20.0836 14.1145 19.9412 14.1439 19.8385 14.1672C19.6928 14.2002 17.3729 15.7336 12.8787 18.7674C12.2202 19.2195 11.6237 19.4398 11.0893 19.4283C10.5002 19.4156 9.36692 19.0952 8.52446 18.8213C7.49115 18.4855 6.66989 18.3079 6.7414 17.7374C6.77865 17.4403 7.18782 17.1364 7.9689 16.8258Z" fill="white"/>
</svg>
