<svg width="24" height="25" viewBox="0 0 24 25" fill="none" xmlns="http://www.w3.org/2000/svg">
<g clip-path="url(#clip0_1048_4651)">
<path d="M24 0.5H0V24.5H24V0.5Z" fill="white" fill-opacity="0.01"/>
<path d="M19 2.5H5C4.44772 2.5 4 2.94772 4 3.5V21.5C4 22.0523 4.44772 22.5 5 22.5H19C19.5523 22.5 20 22.0523 20 21.5V3.5C20 2.94772 19.5523 2.5 19 2.5Z" stroke="#8567FA" stroke-width="2"/>
<path d="M4 8.25H20" stroke="#8567FA" stroke-width="2" stroke-linecap="round" stroke-linejoin="round"/>
<path d="M14 6.5C14.5523 6.5 15 6.05228 15 5.5C15 4.94772 14.5523 4.5 14 4.5C13.4477 4.5 13 4.94772 13 5.5C13 6.05228 13.4477 6.5 14 6.5Z" fill="#8567FA"/>
<path d="M17 6.5C17.5523 6.5 18 6.05228 18 5.5C18 4.94772 17.5523 4.5 17 4.5C16.4477 4.5 16 4.94772 16 5.5C16 6.05228 16.4477 6.5 17 6.5Z" fill="#8567FA"/>
<path d="M12 19C13.933 19 15.5 17.433 15.5 15.5C15.5 13.567 13.933 12 12 12C10.067 12 8.5 13.567 8.5 15.5C8.5 17.433 10.067 19 12 19Z" stroke="#8567FA" stroke-width="2"/>
</g>
<defs>
<clipPath id="clip0_1048_4651">
<rect width="24" height="24" fill="white" transform="translate(0 0.5)"/>
</clipPath>
</defs>
</svg>
